<?xml version="1.0" encoding="UTF-8" standalone="no"?><!-- Generator: Gravit.io --><svg xmlns="http://www.w3.org/2000/svg" xmlns:xlink="http://www.w3.org/1999/xlink" style="isolation:isolate" viewBox="0 0 400 160" width="400pt" height="160pt"><defs><clipPath id="_clipPath_ml2rrv10txL2g0Sx8pUOQiVXpA3Vg7KJ"><rect width="400" height="160"/></clipPath></defs><g clip-path="url(#_clipPath_ml2rrv10txL2g0Sx8pUOQiVXpA3Vg7KJ)"><path d=" M 36.316 155.757 L 6.86 155.757 L 21.5 4.243 L 72.827 4.243 L 87.291 155.757 L 58.54 155.757 L 56.424 131.239 L 38.08 131.239 L 36.316 155.757 Z  M 46.017 29.995 L 40.373 107.075 L 54.131 107.075 L 47.428 29.995 L 46.017 29.995 Z  M 139.853 155.757 L 109.515 155.757 L 109.515 33.347 L 91.524 33.347 L 91.524 4.243 L 157.844 4.243 L 157.844 33.347 L 139.853 33.347 L 139.853 155.757 Z  M 227.869 155.757 L 166.311 155.757 L 166.311 4.243 L 196.649 4.243 L 196.649 130.005 L 227.869 130.005 L 227.869 155.757 Z  M 261.734 155.757 L 232.278 155.757 L 246.918 4.243 L 298.246 4.243 L 312.709 155.757 L 283.959 155.757 L 281.842 131.239 L 263.498 131.239 L 261.734 155.757 Z  M 271.435 29.995 L 265.791 107.075 L 279.549 107.075 L 272.846 29.995 L 271.435 29.995 Z  M 357.863 157.168 L 357.863 157.168 Q 337.226 157.168 328.054 146.938 L 328.054 146.938 L 328.054 146.938 Q 318.883 136.707 318.883 113.954 L 318.883 113.954 L 318.883 99.138 L 348.691 99.138 L 348.691 118.011 L 348.691 118.011 Q 348.691 129.299 355.923 129.299 L 355.923 129.299 L 355.923 129.299 Q 359.98 129.299 361.567 126.918 L 361.567 126.918 L 361.567 126.918 Q 363.155 124.537 363.155 118.893 L 363.155 118.893 L 363.155 118.893 Q 363.155 111.484 361.391 106.634 L 361.391 106.634 L 361.391 106.634 Q 359.627 101.783 356.893 98.52 L 356.893 98.52 L 356.893 98.52 Q 354.159 95.257 347.104 88.378 L 347.104 88.378 L 334.052 75.326 L 334.052 75.326 Q 318.883 60.51 318.883 42.518 L 318.883 42.518 L 318.883 42.518 Q 318.883 23.116 327.79 12.974 L 327.79 12.974 L 327.79 12.974 Q 336.697 2.832 353.806 2.832 L 353.806 2.832 L 353.806 2.832 Q 374.267 2.832 383.263 13.68 L 383.263 13.68 L 383.263 13.68 Q 392.258 24.527 392.258 47.634 L 392.258 47.634 L 361.391 47.634 L 361.215 37.227 L 361.215 37.227 Q 361.215 34.228 359.539 32.465 L 359.539 32.465 L 359.539 32.465 Q 357.863 30.701 354.865 30.701 L 354.865 30.701 L 354.865 30.701 Q 351.337 30.701 349.573 32.641 L 349.573 32.641 L 349.573 32.641 Q 347.809 34.581 347.809 37.933 L 347.809 37.933 L 347.809 37.933 Q 347.809 45.341 356.276 53.278 L 356.276 53.278 L 373.914 70.211 L 373.914 70.211 Q 380.088 76.208 384.144 81.587 L 384.144 81.587 L 384.144 81.587 Q 388.201 86.967 390.671 94.287 L 390.671 94.287 L 390.671 94.287 Q 393.14 101.607 393.14 111.661 L 393.14 111.661 L 393.14 111.661 Q 393.14 134.062 384.938 145.615 L 384.938 145.615 L 384.938 145.615 Q 376.736 157.168 357.863 157.168 L 357.863 157.168 Z " fill="rgb(0,0,0)"/></g></svg>